<?xml version="1.0" encoding="utf-8"?>
<!-- Generator: Adobe Adobe Illustrator 29.2.0, SVG Export Plug-In . SVG Version: 6.00 Build 0)  -->
<svg version="1.1" id="Layer_1" xmlns="http://www.w3.org/2000/svg" xmlns:xlink="http://www.w3.org/1999/xlink" x="0px" y="0px"
	 viewBox="0 0 760.9 737.3" style="enable-background:new 0 0 760.9 737.3;" xml:space="preserve">
<style type="text/css">
	.st0{fill:#572F2D;}
	.st1{fill:#BE7A15;}
	.st2{fill:#9C502A;}
	.st3{fill:#F8CC76;}
	.st4{fill:#7A3329;}
	.st5{fill:#A65528;}
	.st6{fill:#793329;}
</style>
<path id="fill" class="st0" d="M265.9,1.3c16.8-1.7,27.8,4.1,36.5,18.5c16.1,26.7,3.1,45,8,67c3.1,14,27.2,68.6,36,80
	c19.9,25.8,46.5,9.1,75.5,7.5C609.7,164.1,763.2,300,759.4,490.8c-4.5,225.8-221.9,249.7-406.5,219.5c-101.3-16.6-217-13.5-258.4-5
	c-36.3,7.5-5.4,0.9-34.8,7c-28.1,5.8-43,14.6-59.3,25.5c14.4-69.3,71.9-110.1,136.5-130.5c11.4-3.6,23.4-5.6,28-7
	c6.9-2.2,11.5-10.2,25-14c10.8-3,33.3,1.7,41-2c5.8-2.8,10.9-29,11.5-35.5c5.7-66.8-32.3-110.9-75.5-155.5l9.5,45.5
	c-52.3-59.6-72.7-128.4-63-208c-15-4.1-31.9,1.4-46.5-4.5c-4.3-1.7-8.2-7-12-9c-11.3-5.8-21.5-4-26.5-19.5c-11-34.4,15.5-32.7,28-53
	c24-38.9-13-75.3,2-116C65.9,8.5,74.5,9.3,92.9,15.3c6.2,2,28.1,15.1,31,15c2.7-0.1,17.4-7,22-8c20.4-4.5,41-6.8,62-7
	c5,0,20.9,3.5,24,3C237.6,17.4,250.8,2.8,265.9,1.3z"/>
<path id="main_00000026158051046282549120000015001680859435752878_" class="st1" d="M79.5,21.9c4.1-1.3,36.3,17.8,35.5,21.5
	L96.5,56.9C95.2,54.2,79.8,32,77,34.4c-3.3,8.3-4.8,17-4,26c0.2,1.9,11.9,37.5,4.5,33.5C68.4,70.7,63.1,43.1,79.5,21.9z"/>
<path id="main_00000077326439250921906040000014388967946053193641_" class="st1" d="M226.9,28.5c16.9,0-23.9,30.6-17.1,30.3
	c6.3-3.8,0.1-0.2,6.1-3.9l26.4-10.1c-1.6,2.6-2.1,5.5-3,8c-1.3,3.6-4.9,12.5-4,15.5l2-0.5l12-4.5c-8.3,7-25.2,20.8-1,10l-12.5,11.5
	l15.5-4.5l-16,13c9.3,0.2,17.6-3.9,25.5-8.5l-16.5,13.5c4.3,3.3,8.9-0.9,13.5-1.5c-14,12.6,0.2,4.5,3,6l-2,4l8-2l-4,6l8-5
	c2.8,4.4-9.7,9.8-9.5,10.5c2.4,0,2.9-0.3,4-0.5c0,0,6.8-0.2,14.1-3.6c1.8-0.8,10.2-5.7,13.4-8.7c2.5-2.3,2.3-2.1,6.7-8.6
	c0.3-0.3,0.6,0.3,1,1.1c2.3,4.1,3.7,8.8,5.3,13.4c1.9,5.3,1.9,5.2,5.3,14.7c1.9,5.4,2.1,5.7,5,13.7c1.8,4.9,11.8,25,11.8,25
	s-126-5.7-168.1,4.8c-7.5,1.9-22.6,7.2-35.7,9.7c-9.6,1.9-18.2,1.2-21.9,4.1c-5-21.4-28.8-23.5-47-22.2c12.4-12.9,22.3-25.1,22-44
	l-5,3c4.3-8.2,8.7-16.3,13-24.5c7.7-14.3,16.3-31.7,33-42.9C138,37.7,162.2,33.9,171.8,32c18.1-3.6,19.5-2.9,29.1-3.5
	C205.4,28.2,218.4,28.5,226.9,28.5z M183.8,98.8c-33.1,4.3-52.9,55.6-78.5,74.5l53.5-33.5c34.5,12.9,49.3-22.4,81-24
	C227.3,101.8,202,96.4,183.8,98.8z"/>
<path id="main_00000123406565643342479490000010649482005877062319_" class="st1" d="M216,54.9c11.2-11.3,17.4-21.3,31.5-31
	c19.4-13.3,35.2-22.5,49.5,3.5c10.4,19,8.2,49.4-6,66c-0.2,0.2-4.7,6-5,3c10.9-16.4,17-45,7-63c-18.7-33.7-48.1,17.7-56,35.5l-2,0.5
	C234.1,66.3,214.6,58.5,216,54.9"/>
<path id="main_00000085936333598717559150000008374340838727401878_" class="st1" d="M338,179.9c5.3,9.2,13.6,17.8,19.9,25.8
	c7,8.9,12.1,17,22.6,23.2c16.1,9.5,88.3,32.4,107,35c0.9,0.1,3.1,0.3,2-1c-12.6-5.1-24.1-12.6-36.5-18c-16.2-11.8-33.2-23.1-50-34
	c86.4-10.9,180.5,15.5,247,72c22.3,18.9,40.3,43,58,65.5c0.5-2.8-4.4-8.2-1-7.5c17.8,30.3,31,67.8,35,103c-3.1,0.2-2.6-1.5-3-3.5
	c-16.9-85-106.9-183-194-198c37.6,12.9,73.5,38.2,98,69.5c56.5,72.2,81.4,242.5-51.5,235c-43-2.4-75.6-24.2-77-70
	c-20,40.6,0,89.5,24,124c-18.6-12.4-40.9-42-64.5-71c-9.1-11.1-18.4-31.4-17.5-44c-2-3.2-7.5,42-7.5,42s-2.4-2.7-4.6-11.9
	c-1.1-4.6-2.5-9.7-2.5-14.5c0-11.2,1-19,2.7-24.6c4.1-13,5.2-14.5,10.7-25.3c7.4-14.5,26.2-30.8,42.9-37.2c11.3-4.3,44-17,100.9,3.5
	c18.4,7,35.1,17.2,48.5,32c-24-35.8-69.3-60-112-65c-22.9-2.7-49.5-3.6-68.5,10.5c25.3-25.1,60.9-30.5,95-31.5
	c7.1-0.2,14.3,0.2,21.5,0c-28.1-22.9-71.4-28.8-107-27c-27.8,1.4-54.8,11.7-83,5c-24-5.7-44.7-30.1-54-52c-0.9,0.5-0.5,6.4-0.5,8
	c-0.7,22.9,7.3,46.6,9,69.5c5,69.3-11,127-43,187.5c-3.4,6.5-7.2,15-11,21c-1.1,1.7-2.2,2.8-3,4c8.9-30.4,21-69.1,16-101
	c1.1-17.7-8.1-25.8-12.1-34.8c-5.1-11.3-11.1-18.7-22-39.1c-11.7-21.7-13.6-23.8-18.1-44.2c-4.4-19.7-3-29.1-3-29.1
	s-35.8-72.5-22.3-89.2c11.8-14.5,11.2-15.5,22.3-24.8c8.8-7.4,17.2-16.7,4.2-25.8c-14.5-10.1-50.9-11.8-71.2-5.2
	c-23,7.4-41.2,17.2-62.7,20.6c-24.3,3.9-39.8,1.4-39.8,1.4l2.5-3.5c1.4,5.3,12.9-26.1,17.6-23.7c20.6-12.3,117.1-40.2,159-65.2
	c8.3-3.5,21.9,4.6,38.1-21.4c14.4,37.3,14.7,37.2,14.7,37.2C328.9,165.3,322,152.1,338,179.9z"/>
<path id="shading_00000070824161811600053560000010021263834297723314_" class="st2" d="M453,244.9c12.4,5.4,23.9,12.9,36.5,18
	c1.1,1.3-1.1,1.1-2,1c-18.7-2.6-90.9-25.5-107-35c-19.9-11.8-30.6-29.9-42.5-49C368.8,217.8,411.2,226.7,453,244.9z"/>
<path id="shading_00000066478238475505086810000002669697332144977083_" class="st2" d="M503,196.9c50,8.7,101.8,32.1,140.5,65
	c11.1,9.4,21.9,20.1,30.5,32c-2.2-2.3-16.3-17.9-17.5-18c-1.4-0.1-6.7,4.8-6.5,7c-66.5-56.5-160.6-82.9-247-72c-0.2-0.2-0.9-0.3-2-1
	l-18-10.5C420.4,189.4,458.2,187.6,503,196.9z"/>
<path id="shading_00000023259624915277428450000014388793460398145443_" class="st2" d="M742,443.9c1.6,13.9,2.1,28,1,42
	c-3.6-44.6-28.8-87.6-54-123c-12.8-18-26.6-40.5-46-51c-24.5-31.3-60.4-56.6-98-69.5c87.1,15,177.1,113,194,198
	C739.4,442.4,738.9,444.1,742,443.9z"/>
<path id="chin" class="st3" d="M68.5,213.9c18.2,3.9,48.9-1.7,60.5-3.2c10.9-2.5,23.2-6.1,34.7-9.3c1.6-0.4,10.1-3.6,18.2-8
	c0.9-0.3,3.7-0.8,4-1.5c0.4-0.8-0.3-4.1,0.5-5.8c7.4-2.5,17.7-3.9,29.1-3.8c15.4,0.1,32.4,3.5,40.4,9.6l4,6c-0.2,0.8-3.4,1.2-4,1.5
	c-17.8,9.8-152.1,29.7-179.9,21.4"/>
<path id="shading_00000119823947389552585550000012446009544068773257_" class="st2" d="M265,208.9c-10.9,15.8-29,24.9-41,39.5
	c-23.4,28.5-29.2,70.6-23,106c-3.1,0-4.7-6.2-6-8.5c-4.7-28.9-10.5-54.1,1-82.5c12-29.6,39.5-38.5,59-61c1.3-1.5,2.6-1.4,1-3.5
	c0.6-0.3,3.8-0.7,4-1.5l-4-5.5C263.3,197.5,262.9,200.3,265,208.9z"/>
<path id="main" class="st1" d="M252,331.9c-2.3-2.2-3,8-3,8.5c-2,32.3,9.3,64.5,22,93.5l-3,2.5c-20.3-27.4-59.2-46.6-80-71.5
	c-8.9-10.7-18.5-31-24-44l-4.5-47c13.6,23.1,22.7,48.5,35.5,72c1.3,2.3,2.9,8.5,6,8.5c-6.2-35.4-0.4-77.5,23-106
	c12-14.6,30.1-23.7,41-39.5C275.7,254.9,252.4,289.8,252,331.9z"/>
<path id="shading_00000092432863855418474650000017902143979715472280_" class="st4" d="M164,320.9c5.5,13,15.1,33.3,24,44l26,43
	c-26.7-22.3-49.2-47.1-62.5-80l0.5,33.5c-20.6-33.5-19.1-77.2-17-116C149.1,268.4,153.4,296,164,320.9z"/>
<path id="shading_00000121280060020074164840000015136535813197466246_" class="st2" d="M674,293.9c13.1,14,31.3,42.9,40.1,60
	c-3.4-0.7-3.4-1.1-6.6-5.5c-17.7-22.5-35.3-46.6-57.6-65.5c-0.2-2.2,5.1-7.1,6.5-7C657.7,276,671.8,291.6,674,293.9z"/>
<path id="shading_00000093880425055274949290000009745191605392642981_" class="st5" d="M562,363.9l-44.5-7
	c-40.7-1.3-80,12.4-107,43l-36.5-48c-4.8-8.4-14.3-17.5-20-26.5c-5.5-8.8-9.3-18.8-15-27.5c0-1.6-0.4-7.5,0.5-8
	c9.3,21.9,30,46.3,54,52c28.2,6.7,55.2-3.6,83-5c35.6-1.8,78.9,4.1,107,27C576.3,364,569.1,363.7,562,363.9z"/>
<path id="shading_00000015326540540235627120000008602409681406025096_" class="st6" d="M374,351.9c13,22.8,19.1,73.6,16,99.5
	c-2.6,21.5-27.8,60.8-38,81.5l-47,22c32-60.5,48-118.2,43-187.5c-1.7-22.9-9.7-46.6-9-69.5c5.7,8.7,9.5,18.7,15,27.5
	C359.6,334.4,369.2,343.5,374,351.9z"/>
<path id="tail_00000078724194204955444010000012637752617108263846_" class="st2" d="M743,485.9c-4.4,50.3-9.3,78.1-40,117l-6.5,9
	c-7.5,9.3-15.7,17.9-24.5,26l5-60c1.1-1.7,2.6-6.8,4-9c9.6-6.9,25-20.4,31-30.5c29.4-49.3-1.2-127.8-23-175.5
	C714.1,398.3,746.9,441.3,743,485.9z"/>
<path id="shading" class="st4" d="M271,433.9c0.9,2.1,10.5,18.9,8.5,20c-22.6-14.1-45.1-28.9-65.5-46l-26-43
	c20.8,24.9,59.7,44.1,80,71.5L271,433.9z"/>
<path id="feet" class="st0" d="M352,532.9c-5,10.1-9.8,20-15,30c-10.5,3.4-29.4,15.6-40,15.5c-3.8,0-0.7-1.2-3-2.5
	c3.8-6,7.6-14.5,11-21L352,532.9z"/>
<path id="tail" class="st2" d="M678.7,631.4c-35.6,35.6-83.6,56.5-133.8,63.5c-152.2,21.3-345.7-57.3-484,1c-6.3,2.7-12.5,5.7-19,8
	c42.8-32.1,54.2-52.1,114.5-58c126.4-12.5,372.9,59.3,474-13c18.7-13.4,29-27.7,40.5-47c2.1-3.5,8.3-14.5,10-17L678.7,631.4z"/>
<path id="tail_00000172432276171082675250000010946513271215235254_" class="st1" d="M42,703.9c-0.3,0.2-6.1,4.6-6,1.5
	c44.3-65.6,108.1-75.6,182.5-73.5c67.2,1.9,133.9,14.9,201,18c85.7,3.9,190,4.9,251.5-64c-11.5,19.3-21.8,33.6-40.5,47
	c-101.1,72.3-347.6,0.5-474,13C96.2,651.8,84.8,671.8,42,703.9z"/>
<path id="feet_00000147939436018835440210000005094578362449063312_" class="st0" d="M430,616.9v14c-4.6-0.1-36.2,1.1-37-1.5
	C397.5,612.9,416,617.3,430,616.9z"/>
<path id="feet_00000038387293945187484850000000222406519837700496_" class="st0" d="M515,621.9c1.5,2.6,4.1,4.5,4,8
	c-29.2,2.3-59.6,1.3-89,1v-14C457.7,616,488.1,615.2,515,621.9z"/>
<path id="feet_00000171711301621004605630000008261274943940417205_" class="st0" d="M337,562.9c-24.3,47-11.2,53.9-71.5,53
	c-23-0.3-46.5-3-69.5-4.5c2.1-4.5,6.8-7.7,11.5-8.5c35.6-6.1,58,13.9,83.5-23c0.8-1.2,1.9-2.3,3-4c2.3,1.3-0.8,2.5,3,2.5
	C307.6,578.5,326.4,566.3,337,562.9z"/>
<path id="shading_00000093175540830949058970000004606143623892023732_" class="st4" d="M689,362.9c21.8,47.7,52.4,126.2,23,175.5
	c-6,10.1-21.4,23.6-31,30.5c-40,29-112.9,57.1-162,61c0.1-3.5-2.5-5.4-4-8c-14.4-24.9-62.4-74.4-66-94c-2.4-13.3-1.6-31.8,7.5-42
	c0,16.9,8.8,30.5,17.5,44c16.3,25.4,39.5,54.4,64.5,71c-24-34.5-44-83.4-24-124c1.4,45.8,34,67.6,77,70
	c132.9,7.5,108-162.8,51.5-235C662.3,322.4,676.2,344.9,689,362.9z"/>
<path id="eye" class="st0" d="M183.5,99.5c18.2-2.4,43.6,3.1,56.2,17.2c-31.8,1.6-46.6,37.2-81.3,24.2l-53.7,33.8
	C130.4,155.6,150.3,103.8,183.5,99.5z"/>
<path id="tail_00000075868979073074437060000014062366389187313032_" class="st3" d="M51.2,687.1c-0.3,0.2-8.6,9.1-8.5,6
	c44.3-65.6,110.6-80.1,185-78c67.2,1.9,133.9,14.9,201,18c65,3,103.6,0.4,171-22.5c20.1-6.8,61.3-24.3,80.5-41.5
	c-9.3,19.7-16.7,28.8-43.9,47c-55.5,37.2-147.2,40.2-244.3,32.6c-83.6-6.5-167.8-20.4-226.3-14.6C105.4,640,94.1,654.9,51.2,687.1z"
	/>
</svg>
